<svg xmlns="http://www.w3.org/2000/svg" height="1091pt" viewBox="0 -259 1091.25 1091" width="1091pt">
    <path d="M272.809 96.813c-3.891-17.88-19.7-30.622-37.993-30.637v77.855a38.483 38.483 0 0 0 20.262-5.836zm0 0" style="stroke:none;fill-rule:nonzero;fill:#000;fill-opacity:1"/>
    <path d="M235.629 282.363 350.023 15.457 314.246.125 199.883 266.953c-79.274-22.988-162.766 19.625-190.656 97.328-27.887 77.692 9.425 163.692 85.234 196.367 75.809 32.688 163.957.793 201.297-72.832 37.355-73.613 11.031-163.578-60.13-205.453zm-78.66 250.914c-45.153.196-86.375-25.668-105.844-66.41-19.477-40.73-13.715-89.047 14.781-124.066 28.5-35.02 74.633-50.48 118.492-39.688l-15.753 36.73a76.465 76.465 0 0 0-11.676-1.187c-38.574-.441-71.778 27.137-78.457 65.137-6.657 38 15.191 75.223 51.61 87.945 36.421 12.719 76.694-2.812 95.124-36.699 18.445-33.894 9.617-76.148-20.84-99.816l15.453-36.036h1.336c43.106 28.32 62.493 81.59 47.672 130.993-14.816 49.39-60.324 83.187-111.898 83.097zM530.398 280.266H463.93c-1.282 0-2.489.64-3.223 1.707a3.887 3.887 0 0 0-.383 3.625l21.23 53.058h74.852l-22.386-55.945a3.897 3.897 0 0 0-3.622-2.445zM749.016 163.492a170.042 170.042 0 0 0 53.808-8.734 209.56 209.56 0 0 1 52.008-10.164 18.377 18.377 0 0 1 2.797-.563h19.46c10.759 0 19.466-8.722 19.466-19.472 0-10.746-8.707-19.461-19.465-19.461h-8.153c-18.289 0-36.46 2.949-53.804 8.742a209.003 209.003 0 0 1-66.192 10.719H612.613a154.106 154.106 0 0 1 10.114 38.933zM728.828 241.34l19.461-38.926H630.777l11.676 38.926zm0 0" style="stroke:none;fill-rule:nonzero;fill:#000;fill-opacity:1"/>
    <path d="m578.348 163.492-14.18-46.469a116.24 116.24 0 0 0-95.8-50.847H390.52c-32.243 0-58.391 26.14-58.391 58.383v19.472c0 10.746 8.715 19.461 19.465 19.461zM546.227 237.457a42.707 42.707 0 0 1-.7 6.941 42.28 42.28 0 0 1 24.633 23.86l28.164 70.398h25.746c2.457 0 4.762.5 7.145.719l-21.524-71.742c-.164-.445-.48-.813-.625-1.281l-18.968-63.938h-43.871zM421.383 280.266c1.918-22.067 20.406-38.977 42.547-38.926h39.488a3.879 3.879 0 0 0 3.875-3.883v-35.043h-155.7c-2.519-.09-5.034-.34-7.534-.762l33.09 85.153a38.532 38.532 0 0 1 21.167-6.54zM935.477 435.969v-38.93h-234.13l-1.25 2.676h-.113c.227 1.062.371 2.16.563 3.27a67.358 67.358 0 0 1 0 27.242 79.655 79.655 0 0 1-.742 3.894c-.145.68-.223 1.379-.41 2.067h236.082zm0 0" style="stroke:none;fill-rule:nonzero;fill:#000;fill-opacity:1"/>
    <path d="M954.938 474.895h-70.836a76.556 76.556 0 0 0 10.136 7.457c1.14.695 2.297 1.28 3.465 1.941a70.35 70.35 0 0 0 7.98 3.89c1.36.59 2.77 1.118 4.16 1.598 2.833.985 5.7 1.793 8.602 2.438 1.332.297 2.61.652 3.899.875 4.332.8 8.734 1.226 13.133 1.261 43.003 0 77.847-34.863 77.847-77.855 0-42.996-34.844-77.844-77.847-77.844a77.34 77.34 0 0 0-13 1.203c-1.336.22-2.622.594-3.883.875a75.308 75.308 0 0 0-8.602 2.438c-1.41.476-2.8 1.008-4.172 1.594a71.61 71.61 0 0 0-7.976 3.886c-1.168.645-2.336 1.227-3.465 1.953a74.363 74.363 0 0 0-10.137 7.454h70.696c10.757 0 19.464 8.714 19.464 19.46v77.86a19.428 19.428 0 0 1-5.668 13.793 19.465 19.465 0 0 1-13.797 5.723zm0 0" style="stroke:none;fill-rule:nonzero;fill:#000;fill-opacity:1"/>
    <path d="M935.477 260.8c-63.516-.273-120.75 38.317-144.286 97.317h43.258c.371-.668.856-1.222 1.242-1.945 1.145-1.942 2.414-3.645 3.664-5.45 1.832-2.667 3.672-5.316 5.723-7.784 1.418-1.743 2.922-3.391 4.434-5.04 2.113-2.308 4.289-4.558 6.566-6.68 1.652-1.558 3.36-3.034 5.094-4.48a115.086 115.086 0 0 1 7.355-5.601c1.856-1.297 3.696-2.563 5.63-3.774 2.652-1.636 5.363-3.113 8.148-4.543 1.945-1.004 3.898-2.054 5.843-2.957 2.977-1.312 6.04-2.41 9.106-3.472 1.95-.688 3.898-1.465 5.844-2.043 3.46-.996 7.004-1.703 10.558-2.364 1.766-.336 3.473-.808 5.262-1.074 45.281-6.55 90.207 13.926 114.957 52.402 24.754 38.485 24.754 87.864 0 126.336-24.75 38.48-69.676 58.965-114.957 52.403-1.79-.25-3.52-.735-5.29-1.074-3.546-.668-7.07-1.356-10.51-2.34-2.04-.586-3.9-1.371-5.973-2.07-3.086-1.06-6.133-2.141-9.098-3.47-1.938-.886-3.887-1.945-5.836-2.949-2.781-1.425-5.512-2.902-8.16-4.53-1.938-1.208-3.762-2.481-5.621-3.782a114.656 114.656 0 0 1-7.356-5.613c-1.726-1.43-3.445-2.914-5.094-4.473-2.296-2.121-4.464-4.355-6.566-6.668-1.523-1.664-3.016-3.312-4.441-5.05a188.045 188.045 0 0 1-5.711-7.786c-1.25-1.805-2.512-3.566-3.664-5.441-.387-.668-.875-1.227-1.25-1.946H791.19c29.344 72.598 108.051 112.118 183.813 92.258 75.746-19.844 124.973-92.863 114.957-170.535-10.012-77.668-76.164-135.809-154.484-135.781zM654.133 280.266l22.976 76.644 35.77-76.644zM431.836 319.188h-33.52l17.079 40.582a78.153 78.153 0 0 1 26.214-16.086zM507.293 416.5c0 21.496-17.414 38.934-38.926 38.934-21.496 0-38.918-17.438-38.918-38.934 0-21.492 17.422-38.914 38.918-38.914 21.512 0 38.926 17.422 38.926 38.914zM661.543 406.563c-1.64-5.91-4.598-11.383-8.684-15.961a4.21 4.21 0 0 1-.27-.414 38.736 38.736 0 0 0-28.519-12.602h-88.664c14.426 23.95 14.426 53.906 0 77.848h88.664a38.732 38.732 0 0 0 28.52-12.614c.082-.14.18-.273.27-.41a39.992 39.992 0 0 0 8.683-15.96c.176-.583.414-1.122.539-1.712a37.279 37.279 0 0 0 0-16.46c-.125-.587-.363-1.13-.539-1.716zm0 0" style="stroke:none;fill-rule:nonzero;fill:#000;fill-opacity:1"/>
</svg>
